<svg width="28" height="35" viewBox="0 0 28 35"  xmlns="http://www.w3.org/2000/svg">
<path fill="currentColor" d="M14.3332 0.450012H14.2332L0.733154 1.85001V26.55L14.2332 34.55L27.6332 26.55V1.85001L14.3332 0.450012ZM25.7332 12.55L14.2332 5.75001V5.65001H14.1332L14.0332 5.55001V5.65001L2.63315 12.55V3.55001L14.1332 2.35001L25.7332 3.55001V12.55ZM14.1332 7.25001L25.6332 13.95L21.1332 16.55L14.0332 12.35V13.75L19.9332 17.25L19.0332 17.75L14.0332 14.75V16.15L17.8332 18.45L17.0332 18.95L14.0332 17.15V18.55L15.9332 19.65L14.1332 20.75L2.73315 14.05L14.1332 7.25001ZM2.63315 15.55L14.0332 22.35V23.35L6.13315 18.65V20.05L14.1332 24.85V25.95L6.13315 21.25V22.65L14.1332 27.45L22.2332 22.55V17.35L25.6332 15.35V25.35L14.1332 32.25L2.63315 25.45V15.55Z"/>
</svg>
